<?xml version="1.0" standalone="no"?>
<!DOCTYPE svg PUBLIC "-//W3C//DTD SVG 20010904//EN"
 "http://www.w3.org/TR/2001/REC-SVG-20010904/DTD/svg10.dtd">
<svg version="1.0" xmlns="http://www.w3.org/2000/svg"
 width="1772.000000pt" height="1772.000000pt" viewBox="0 0 1772.000000 1772.000000"
 preserveAspectRatio="xMidYMid meet">
<metadata>
Created by potrace 1.11, written by Peter Selinger 2001-2013
</metadata>
<g transform="translate(0.000000,1772.000000) scale(0.100000,-0.100000)"
fill="#000000" stroke="none">
<path d="M10248 14205 c-1 -1 -28 -6 -58 -9 -541 -63 -1044 -312 -1421 -702
-135 -140 -158 -170 -658 -884 -25 -36 -119 -171 -210 -300 -90 -129 -183
-262 -206 -295 -23 -33 -60 -85 -81 -116 -144 -207 -289 -414 -351 -502 -40
-56 -77 -109 -83 -117 -6 -8 -65 -94 -133 -190 -67 -96 -139 -200 -160 -230
-21 -30 -62 -89 -91 -130 -29 -41 -130 -185 -224 -320 -95 -135 -178 -254
-186 -265 -8 -11 -123 -175 -256 -365 -132 -190 -248 -354 -256 -365 -22 -31
-738 -1053 -833 -1190 -19 -27 -38 -51 -43 -53 -4 -2 -8 -10 -8 -18 0 -9 -4
-13 -9 -9 -9 5 -268 373 -948 1345 -144 206 -267 382 -273 390 -28 39 -504
719 -525 750 -14 19 -39 55 -56 80 -24 34 -635 907 -996 1423 -18 26 -48 68
-66 95 -19 26 -186 265 -373 532 -202 290 -363 509 -399 546 -105 106 -219
171 -367 209 -126 33 -304 29 -418 -8 -344 -111 -558 -400 -558 -752 0 -192
44 -319 174 -504 29 -42 58 -83 64 -91 17 -25 545 -779 558 -798 7 -9 71 -100
142 -202 71 -102 134 -192 140 -200 52 -74 304 -433 350 -500 32 -47 132 -191
223 -320 91 -129 185 -263 209 -298 24 -34 63 -91 88 -126 25 -35 52 -74 60
-86 8 -12 22 -32 31 -44 29 -39 422 -600 473 -676 28 -41 56 -80 61 -87 6 -6
25 -33 43 -60 19 -26 114 -163 212 -303 98 -140 209 -298 245 -350 127 -181
249 -356 378 -540 72 -102 151 -214 176 -250 25 -36 119 -171 209 -300 90
-129 170 -240 178 -246 9 -8 296 -10 970 -10 l957 1 133 190 c73 105 142 204
154 220 22 29 524 747 599 855 21 30 167 239 325 464 157 224 286 412 286 416
0 5 4 10 8 12 5 2 131 179 281 393 150 215 279 399 287 410 8 11 167 238 353
505 368 526 425 607 484 690 37 52 216 308 237 340 6 8 75 106 153 217 78 112
239 341 357 510 118 170 230 328 250 352 256 321 715 390 1054 159 217 -148
338 -380 339 -648 1 -199 -45 -319 -211 -553 -51 -73 -277 -395 -503 -717
-225 -322 -413 -592 -419 -600 -6 -8 -74 -105 -150 -214 -77 -110 -140 -202
-140 -206 0 -3 47 -73 106 -155 58 -83 131 -187 162 -233 31 -46 100 -144 152
-218 52 -73 115 -163 140 -199 25 -36 86 -122 135 -193 50 -70 124 -174 163
-232 40 -58 101 -145 136 -195 81 -116 529 -755 575 -820 19 -27 102 -147 184
-265 83 -118 163 -231 178 -251 l28 -36 960 0 960 0 18 26 c11 14 46 64 78
111 76 110 61 89 501 717 208 296 402 574 433 618 31 45 84 121 119 170 35 50
142 203 238 340 95 138 177 255 182 260 7 9 139 198 284 405 153 220 580 830
598 855 21 29 406 579 519 741 31 44 106 151 166 238 470 669 651 928 683 974
154 222 196 336 196 532 0 142 -20 231 -77 350 -198 410 -714 563 -1110 329
-98 -58 -205 -168 -316 -329 -52 -74 -279 -398 -504 -720 -618 -881 -628 -896
-642 -919 -5 -9 -12 -18 -15 -21 -3 -3 -39 -54 -80 -113 -41 -60 -89 -127
-106 -150 -17 -23 -66 -94 -109 -157 -43 -63 -81 -117 -84 -120 -3 -3 -20 -25
-36 -50 -47 -69 -931 -1332 -969 -1385 -8 -11 -177 -252 -375 -535 -385 -552
-517 -740 -541 -772 -15 -19 -18 -16 -80 74 -36 52 -231 331 -435 621 -203
291 -398 568 -433 618 l-62 90 19 27 c11 15 123 176 250 357 126 182 234 335
238 340 12 14 136 194 194 280 52 78 169 292 169 310 0 6 4 15 9 20 12 14 77
186 106 285 24 81 28 95 41 158 3 15 9 45 14 67 5 22 12 63 16 90 3 28 8 59
10 70 5 25 17 246 17 300 -3 526 -190 1052 -520 1465 -365 456 -923 776 -1493
856 -14 2 -41 6 -60 10 -35 6 -495 15 -502 9z"/>
<path d="M4997 4932 c-9 -10 -17 -22 -17 -25 0 -4 -31 -54 -69 -112 -80 -121
-88 -109 82 -106 67 1 76 7 216 137 l44 40 -109 39 c-60 21 -114 40 -120 42
-5 2 -18 -5 -27 -15z"/>
<path d="M17197 4604 c-1 -1 -18 -5 -37 -8 -128 -20 -242 -78 -330 -166 -82
-82 -112 -138 -147 -270 -11 -42 -10 -165 2 -223 43 -204 185 -353 397 -418
48 -14 87 -17 182 -15 67 2 132 5 146 8 89 17 274 98 289 126 5 10 9 108 9
220 l1 202 -32 1 c-37 1 -199 1 -207 0 -3 -1 -5 -64 -5 -140 l1 -139 -56 -24
c-82 -34 -206 -33 -275 4 -103 54 -173 161 -176 269 -8 276 256 424 511 286
30 -16 63 -37 73 -45 21 -18 27 -13 124 107 l51 64 -26 22 c-67 56 -205 115
-305 131 -40 6 -185 13 -190 8z"/>
<path d="M0 4053 c0 -510 1 -543 18 -544 21 -1 185 -1 228 0 l31 1 0 143 c0
79 2 148 5 153 3 5 53 8 110 6 l104 -3 74 -145 c41 -80 79 -148 84 -151 9 -6
305 -8 310 -2 2 2 -47 83 -109 179 l-112 175 40 27 c99 66 150 173 151 318 0
167 -60 273 -189 334 -94 44 -143 50 -452 51 l-293 1 0 -543z m590 301 c66
-38 93 -102 78 -184 -10 -54 -33 -88 -79 -115 -29 -17 -54 -20 -171 -21 -121
-2 -138 0 -139 15 -1 21 -1 280 0 308 1 21 4 21 140 19 115 -2 144 -6 171 -22z"/>
<path d="M1510 4053 l0 -543 23 -1 c28 -1 782 -1 820 0 l27 1 0 109 0 110
-295 -2 -295 -2 -1 50 c0 28 -1 76 -2 108 -1 31 0 58 3 58 3 1 120 2 260 3
l255 1 1 105 c1 58 -2 107 -6 110 -5 3 -121 5 -258 4 -290 -1 -260 -16 -252
127 l5 86 278 0 c153 0 281 3 284 6 7 8 10 207 3 208 -3 1 -195 2 -427 3
l-423 1 0 -542z"/>
<path d="M2946 4590 c-6 -11 -3 -1080 3 -1080 11 -1 174 -2 216 -1 l40 1 0
325 c0 179 3 324 7 323 4 -2 64 -79 133 -173 69 -93 131 -177 138 -185 7 -9
41 -55 77 -104 36 -48 83 -110 105 -138 l40 -51 105 1 c58 0 112 1 121 1 15 1
16 51 17 541 0 297 -3 541 -6 541 -4 1 -62 2 -129 3 -122 1 -123 1 -124 -21 0
-13 0 -160 -1 -328 0 -168 -2 -305 -4 -305 -2 0 -111 143 -241 318 -130 174
-240 321 -245 327 -9 10 -247 15 -252 5z"/>
<path d="M4550 4053 c0 -510 1 -543 18 -544 23 0 824 0 840 0 9 1 12 30 12
110 l0 109 -292 0 -293 0 0 109 0 108 245 1 c135 1 250 2 257 3 9 1 12 31 12
106 l0 105 -27 1 c-15 0 -132 1 -259 1 l-233 1 0 107 0 107 280 0 c154 0 283
2 286 6 9 8 10 187 2 200 -5 9 -115 12 -428 12 l-420 0 0 -542z"/>
<path d="M6626 4590 c-2 -3 66 -214 150 -470 85 -256 163 -498 175 -537 l22
-73 48 -1 c62 -1 93 -1 177 0 l67 1 100 365 c54 201 102 360 106 353 4 -7 23
-76 44 -153 20 -77 40 -151 45 -165 5 -14 30 -106 55 -205 26 -99 51 -184 56
-189 8 -9 277 -12 283 -4 2 1 40 116 85 253 45 138 85 257 88 265 3 8 7 20 8
25 2 6 41 127 89 269 48 144 82 262 77 266 -8 4 -251 6 -272 1 -3 0 -14 -36
-24 -78 -23 -94 -16 -70 -60 -233 -20 -74 -38 -143 -40 -154 -3 -10 -11 -42
-19 -70 -8 -28 -17 -62 -20 -76 -16 -74 -41 -160 -46 -160 -3 0 -25 73 -48
163 -23 89 -54 203 -67 252 -14 50 -27 99 -30 110 -2 11 -18 71 -35 133 -16
62 -30 114 -30 115 0 2 -61 2 -137 2 l-136 -1 -12 -44 c-14 -50 -133 -506
-140 -536 -2 -11 -15 -59 -28 -109 -22 -82 -25 -88 -35 -65 -6 14 -49 171 -96
350 -47 179 -91 343 -98 365 l-13 40 -143 0 c-79 0 -145 -2 -146 -5z"/>
<path d="M8799 4595 c-4 0 -2 -1070 2 -1077 4 -7 151 -10 420 -10 228 0 421 1
429 1 13 1 15 18 14 104 -1 56 -2 105 -3 109 0 3 -117 6 -258 7 -142 0 -274 0
-293 1 l-36 0 1 108 0 107 258 0 257 0 0 107 c0 79 -3 108 -12 109 -7 0 -123
1 -258 2 l-245 2 0 103 c-1 96 0 103 19 107 12 2 134 4 271 4 138 -1 258 0
268 0 15 1 17 13 17 109 l0 107 -425 0 c-234 0 -425 0 -426 0z"/>
<path d="M10136 4591 c-2 -3 -4 -54 -4 -113 l0 -107 111 0 c62 0 135 0 163 0
l51 -1 0 -425 c0 -234 3 -428 6 -432 6 -6 40 -6 227 -4 l45 1 0 426 c0 240 4
428 9 431 5 3 78 5 162 5 138 -1 154 1 155 16 1 24 1 151 0 183 l-1 26 -460 0
c-254 0 -462 -3 -464 -6z"/>
<path d="M11571 4590 c-11 -8 -8 -1080 4 -1081 16 0 786 -1 826 0 l35 1 -2
103 c-1 56 -2 105 -3 109 0 4 -124 7 -273 7 -150 0 -282 0 -293 0 -20 1 -21 7
-20 109 l0 107 257 0 c167 0 258 3 259 10 6 74 2 191 -7 199 -7 7 -95 11 -260
10 l-249 -1 0 107 0 107 270 1 c148 0 277 1 286 1 14 1 16 16 15 108 l-1 108
-418 0 c-230 0 -422 -2 -426 -5z"/>
<path d="M13004 4591 c-2 -2 -4 -247 -4 -543 0 -531 0 -538 20 -539 11 0 155
0 320 0 165 0 322 0 349 0 l48 1 0 115 c0 78 -3 115 -11 116 -6 0 -109 1 -228
1 -214 1 -218 2 -219 22 0 12 -1 202 -1 424 -1 284 -4 402 -12 403 -34 4 -258
4 -262 0z"/>
<path d="M14259 4595 c-1 0 -2 -244 -3 -542 -1 -430 1 -543 11 -544 7 0 58 0
113 0 55 0 112 0 128 0 l27 1 -1 533 c-1 292 -2 537 -3 542 -1 7 -207 15 -272
10z"/>
<path d="M15139 4595 c0 0 -1 -244 -2 -543 l-2 -542 30 -1 c35 -1 144 -1 196
0 l37 1 0 323 c0 177 1 326 1 331 1 4 34 -36 73 -90 40 -55 78 -106 85 -114
20 -25 91 -119 217 -289 66 -89 122 -161 125 -161 12 -1 217 -2 231 -1 13 1
15 66 14 530 0 290 -3 535 -6 542 -4 12 -32 14 -129 14 l-124 0 -2 -295 c-1
-162 -2 -312 -2 -334 l-1 -38 -57 80 c-32 44 -68 92 -81 108 -12 16 -98 130
-190 254 l-168 225 -122 0 c-67 0 -122 0 -123 0z"/>
</g>
</svg>
