<?xml version="1.0" standalone="no"?>
<!DOCTYPE svg PUBLIC "-//W3C//DTD SVG 20010904//EN"
 "http://www.w3.org/TR/2001/REC-SVG-20010904/DTD/svg10.dtd">
<svg version="1.0" xmlns="http://www.w3.org/2000/svg"
 width="1000.000000pt" height="1000.000000pt" viewBox="0 0 1000.000000 1000.000000"
 preserveAspectRatio="xMidYMid meet">
<metadata>
Created by potrace 1.14, written by Peter Selinger 2001-2017
</metadata>
<g transform="translate(0.000000,1000.000000) scale(0.100000,-0.100000)"
fill="#000000" stroke="none">
<path d="M5769 7166 c-2 -2 -27 -6 -56 -10 -210 -25 -471 -137 -638 -274 -153
-125 -183 -164 -614 -781 -37 -53 -298 -424 -327 -466 -54 -76 -357 -509 -424
-605 -33 -47 -86 -123 -119 -170 -33 -47 -77 -110 -98 -140 -21 -30 -83 -119
-138 -198 -312 -445 -388 -552 -460 -656 -44 -64 -83 -116 -87 -116 -4 0 -12
10 -19 22 -6 11 -39 60 -73 107 -33 47 -65 93 -71 102 -13 21 -96 141 -107
154 -14 16 -285 403 -336 480 -26 39 -49 72 -53 75 -3 3 -41 57 -85 120 -43
63 -82 120 -87 125 -8 9 -231 327 -763 1090 -111 160 -206 295 -211 300 -5 6
-33 46 -63 90 -157 230 -202 281 -292 326 -220 111 -473 33 -596 -185 -36 -63
-51 -132 -47 -226 4 -138 5 -139 304 -565 77 -110 153 -218 169 -240 15 -22
52 -74 81 -115 29 -41 174 -248 322 -460 149 -212 290 -414 315 -450 62 -89
120 -172 179 -255 28 -38 55 -77 60 -86 6 -10 38 -57 73 -106 86 -120 363
-514 458 -653 25 -36 69 -99 99 -140 29 -41 86 -123 127 -182 l73 -107 545 0
545 0 26 37 c52 76 409 586 450 643 6 8 56 81 112 161 56 80 140 200 187 267
47 67 167 239 268 384 101 144 189 269 195 277 13 15 44 60 227 325 57 83 108
155 113 160 4 6 35 48 67 95 33 47 64 92 70 100 6 8 58 83 115 165 58 83 111
157 118 166 6 8 17 23 22 32 54 89 247 351 284 386 48 45 163 99 231 109 151
22 300 -38 412 -166 101 -115 123 -329 49 -470 -17 -31 -118 -180 -175 -257
-8 -11 -71 -101 -140 -200 -69 -99 -129 -185 -134 -191 -5 -5 -22 -30 -38 -55
-16 -24 -31 -46 -34 -49 -3 -3 -59 -81 -123 -173 -74 -107 -115 -173 -110
-181 14 -22 197 -281 202 -286 4 -3 23 -30 43 -60 20 -30 58 -86 86 -125 27
-38 91 -131 144 -205 380 -542 453 -646 565 -808 l57 -82 544 2 545 3 123 175
c68 96 128 182 134 190 5 8 53 76 105 150 52 74 125 179 162 233 37 53 74 105
81 115 7 9 44 62 83 117 38 55 76 108 84 118 8 9 15 20 15 23 0 5 41 65 51 74
3 3 41 57 84 120 43 63 81 117 84 120 3 3 29 39 56 80 28 41 53 77 56 80 3 3
25 34 49 70 24 36 48 70 53 75 6 8 275 391 515 735 25 36 124 178 220 315 97
138 191 272 210 300 63 89 94 170 97 257 9 209 -102 374 -303 447 -65 24 -191
27 -262 5 -129 -38 -197 -101 -340 -314 -6 -8 -52 -73 -102 -145 -50 -71 -112
-159 -137 -195 -24 -36 -56 -81 -70 -101 -15 -20 -32 -45 -39 -55 -7 -11 -45
-65 -85 -121 -39 -56 -110 -157 -157 -224 -47 -67 -100 -143 -118 -168 -18
-25 -60 -86 -93 -135 -34 -49 -65 -94 -70 -100 -6 -6 -51 -70 -102 -143 -51
-73 -126 -180 -167 -239 -265 -378 -323 -461 -336 -479 -8 -11 -45 -65 -83
-120 -39 -55 -73 -104 -78 -110 -5 -5 -59 -84 -122 -175 -62 -91 -121 -173
-130 -183 -16 -16 -26 -4 -186 225 -94 134 -205 293 -248 353 -42 61 -83 118
-90 129 -6 10 -20 29 -30 42 -11 14 -17 30 -14 37 5 13 299 438 338 487 91
118 192 331 225 475 30 131 37 188 38 310 3 215 -40 404 -134 597 -71 144
-134 231 -245 343 -115 116 -134 132 -224 190 -111 71 -289 152 -376 169 -19
4 -130 28 -165 35 -36 8 -314 14 -321 7z"/>
</g>
</svg>
