<?xml version="1.0" encoding="utf-8"?>
<!-- Generator: Adobe Illustrator 17.0.0, SVG Export Plug-In . SVG Version: 6.00 Build 0)  -->
<!DOCTYPE svg PUBLIC "-//W3C//DTD SVG 1.1//EN" "http://www.w3.org/Graphics/SVG/1.1/DTD/svg11.dtd">
<svg version="1.1" id="Layer_1" xmlns="http://www.w3.org/2000/svg" xmlns:xlink="http://www.w3.org/1999/xlink" x="0px" y="0px"
	 width="500px" height="300px" viewBox="575 575 270 270"
	 xml:space="preserve" >
<g>
	<path d="M913.21,599.615c-8.537-5.977-20.303-3.903-26.28,4.634l-15.157,21.641L801.738,725.92l-23.971-34.229l15.756-22.506
		c17.933-25.608,11.709-60.909-13.899-78.842c-25.608-17.927-60.909-11.703-78.842,13.906l-15.157,21.641L615.582,725.92
		L530.39,604.249c-5.977-8.537-17.743-10.611-26.28-4.634c-8.537,5.977-10.611,17.743-4.634,26.28
		c0.011,0.016,0.025,0.03,0.036,0.047l93.038,132.877h46.071l62.453-89.193l7.589-10.837l23.032-32.898
		c5.978-8.534,17.747-10.611,26.281-4.633c8.541,5.978,10.611,17.747,4.633,26.281l-7.882,11.256l-22.739,32.478l-0.293,0.413
		l23.039,32.898l23.971,34.236h46.065l93.038-132.877c0.011-0.016,0.025-0.03,0.036-0.047
		C923.822,617.358,921.747,605.592,913.21,599.615z"/>
	<path d="M507.894,829.589h-0.185h-5.024v7.33h-6.624v-26.05h11.648c6.884,0,10.83,3.276,10.83,9.081
		c0,3.982-1.676,6.848-4.727,8.372l5.469,8.596h-7.518L507.894,829.589z M507.709,824.377c2.863,0,4.539-1.451,4.539-4.206
		c0-2.715-1.676-4.094-4.539-4.094h-5.024v8.299H507.709z"/>
	<path d="M538.952,816.077v5.175h12.429v5.209h-12.429v5.248h14.178v5.209h-20.802v-26.05h20.392v5.209H538.952z"/>
	<path d="M584.928,836.918l-11.981-16.038v16.038h-6.215v-26.05h5.842l12.02,16.078v-16.078h6.178v26.05H584.928z"/>
	<path d="M611.929,816.077v5.175h12.429v5.209h-12.429v5.248h14.175v5.209h-20.798v-26.05h20.392v5.209H611.929z M617.286,808.599
		h-4.909l3.939-6.251l5.806,2.045L617.286,808.599z"/>
	<path d="M680.13,836.918l-4.842-18.011l-4.909,18.011h-6.848l-8.521-26.05h7.072l5.097,19.165l4.988-19.165h6.472l5.097,19.165
		l5.024-19.165h6.775l-8.593,26.05H680.13z"/>
	<path d="M713.837,816.077v5.175h12.429v5.209h-12.429v5.248h14.175v5.209h-20.799v-26.05h20.392v5.209H713.837z"/>
	<path d="M753.67,816.19v20.729h-6.624V816.19h-7.775v-5.357h22.253v5.357H753.67z"/>
	<path d="M780.299,816.077v5.175h12.429v5.209h-12.429v5.248h14.175v5.209h-20.799v-26.05h20.392v5.209H780.299z"/>
	<path d="M825.756,831.373v5.545h-17.678v-26.05h6.624v20.505H825.756z"/>
	<path d="M838.24,836.918v-26.05h6.624v26.05H838.24z"/>
	<path d="M877.583,836.918l-11.987-16.038v16.038h-6.212v-26.05h5.842l12.017,16.078v-16.078h6.181v26.05H877.583z"/>
	<path d="M920.998,823.671v10.16c-2.794,1.973-7.181,3.385-10.83,3.385c-7.927,0-13.92-5.73-13.92-13.32
		c0-7.557,6.145-13.251,14.369-13.251c3.866,0,7.963,1.491,10.642,3.872l-3.721,4.503c-1.897-1.748-4.539-2.83-6.957-2.83
		c-4.285,0-7.557,3.351-7.557,7.706c0,4.427,3.309,7.775,7.63,7.775c1.339,0,3.048-0.482,4.612-1.264v-6.736H920.998z"/>
</g>
</svg>
