<?xml version="1.0" encoding="utf-8"?>
<!-- Generator: Adobe Illustrator 17.0.0, SVG Export Plug-In . SVG Version: 6.00 Build 0)  -->
<!DOCTYPE svg PUBLIC "-//W3C//DTD SVG 1.1//EN" "http://www.w3.org/Graphics/SVG/1.1/DTD/svg11.dtd">
<svg version="1.1" id="Layer_1" xmlns="http://www.w3.org/2000/svg" xmlns:xlink="http://www.w3.org/1999/xlink" x="0px" y="0px"
	 width="1417.32px" height="1417.32px" viewBox="0 0 1417.32 1417.32" enable-background="new 0 0 1417.32 1417.32"
	 xml:space="preserve">
<path d="M913.21,638.813c-8.537-5.977-20.303-3.903-26.28,4.634l-15.157,21.641l-70.035,100.031l-23.971-34.229l15.756-22.506
	c17.933-25.608,11.709-60.909-13.899-78.842c-25.608-17.927-60.909-11.703-78.842,13.906l-15.157,21.641l-70.042,100.031
	L530.39,643.447c-5.977-8.537-17.743-10.611-26.28-4.634c-8.537,5.977-10.611,17.743-4.634,26.28
	c0.011,0.016,0.025,0.03,0.036,0.047l93.038,132.877h46.071l62.453-89.193l7.589-10.837l23.032-32.898
	c5.978-8.534,17.747-10.611,26.281-4.633c8.541,5.978,10.611,17.747,4.633,26.281l-7.882,11.257l-22.739,32.478l-0.293,0.413
	l23.039,32.898l23.971,34.236h46.065l93.038-132.877c0.011-0.016,0.025-0.03,0.036-0.047
	C923.822,656.557,921.747,644.791,913.21,638.813z"/>
</svg>
