<svg enable-background="new 0 0 1417.32 1417.32" height="1417.32" viewBox="0 0 1417.32 1417.32" width="1417.32" xmlns="http://www.w3.org/2000/svg"><path d="m913.21 638.813c-8.537-5.977-20.303-3.903-26.28 4.634l-15.157 21.641-70.035 100.031-23.971-34.229 15.756-22.506c17.933-25.608 11.709-60.909-13.899-78.842-25.608-17.927-60.909-11.703-78.842 13.906l-15.157 21.641-70.042 100.031-85.193-121.673c-5.977-8.537-17.743-10.611-26.28-4.634s-10.611 17.743-4.634 26.28c.011.016.025.03.036.047l93.038 132.877h46.071l62.453-89.193 7.589-10.837 23.032-32.898c5.978-8.534 17.747-10.611 26.281-4.633 8.541 5.978 10.611 17.747 4.633 26.281l-7.882 11.257-22.739 32.478-.293.413 23.039 32.898 23.971 34.236h46.065l93.038-132.877c.011-.016.025-.03.036-.047 5.978-8.538 3.903-20.304-4.634-26.282z"/></svg>